<?xml version="1.0" encoding="utf-8"?>
<!-- Generator: Adobe Illustrator 21.0.2, SVG Export Plug-In . SVG Version: 6.00 Build 0)  -->
<svg version="1.2" baseProfile="tiny" id="图层_2"
	 xmlns="http://www.w3.org/2000/svg" xmlns:xlink="http://www.w3.org/1999/xlink" x="0px" y="0px" viewBox="0 0 500 500"
	 overflow="scroll" xml:space="preserve">
<path fill="#FFFFFF" d="M250,0C111.9,0,0,111.9,0,250s111.9,250,250,250s250-111.9,250-250S388.1,0,250,0z M217.5,342
	c-2-3.9-4.4-8.3-7.3-13.2c-2.9-4.8-6-9.8-9.4-14.9c-3.4-5.1-6.9-10.2-10.5-15.2c-3.6-5-7.1-9.8-10.5-14.3
	c-3.4,4.5-6.9,9.3-10.5,14.4c-3.6,5.1-7,10.2-10.4,15.3c-3.3,5.1-6.4,10.1-9.3,14.9c-2.9,4.8-5.3,9.2-7.3,12.9h-25.8
	c6.3-12.2,13.8-24.6,22.5-37.3c8.7-12.7,17.4-24.7,26-36.2L118.7,202H147l33.4,49l33.7-49h26.7l-45.2,64.9c8.6,11.7,17.5,24,26.5,37
	c9.1,13,16.7,25.7,23,38.1H217.5z M382,337.7c-5.7,1.6-13.1,3.2-22,4.8c-9,1.6-19.3,2.4-30.9,2.4c-10.8,0-20.4-1.7-29-5.1
	c-8.6-3.4-16-8.2-22-14.5c-6.1-6.3-10.8-13.9-14.1-23c-3.3-9-5-19.2-5-30.5c0-10.8,1.4-20.6,4.2-29.6c2.8-9,6.9-16.7,12.2-23.1
	c5.4-6.5,12-11.5,19.8-15.1c7.8-3.6,16.7-5.4,26.7-5.4c8.1,0,15.2,1.1,21.4,3.2c6.2,2.2,10.8,4.2,13.8,6.2v-70.7l25-4.3V337.7z"/>
<path fill="#FFFFFF" d="M324.9,220.7c-7.2,0-13.4,1.3-18.5,3.9c-5.1,2.6-9.3,6.2-12.6,10.8c-3.2,4.6-5.6,10-7,16.3
	c-1.4,6.3-2.2,13.1-2.2,20.2c0,16.4,4,29,12.2,37.9c8.1,8.9,18.9,13.4,32.4,13.4c6.8,0,12.6-0.3,17.1-0.9c4.6-0.6,8.1-1.3,10.7-2
	v-88.8c-3.1-2.5-7.5-4.9-13.2-7.3C338,221.9,331.7,220.7,324.9,220.7z"/>
<g>
</g>
<g>
</g>
<g>
</g>
<g>
</g>
<g>
</g>
<g>
</g>
<g>
</g>
<g>
</g>
<g>
</g>
<g>
</g>
<g>
</g>
<g>
</g>
<g>
</g>
<g>
</g>
<g>
</g>
</svg>
